<mxfile host="65bd71144e">
    <diagram id="mOoZWHhRWZL_xT8jtYIi" name="Seite-1">
        <mxGraphModel dx="1088" dy="800" grid="1" gridSize="10" guides="1" tooltips="1" connect="1" arrows="1" fold="1" page="1" pageScale="1" pageWidth="2336" pageHeight="1654" math="0" shadow="0">
            <root>
                <mxCell id="0"/>
                <mxCell id="1" parent="0"/>
                <mxCell id="63" value="Admin Area" style="rounded=1;whiteSpace=wrap;html=1;fillColor=#dae8fc;strokeColor=#6c8ebf;gradientColor=#7ea6e0;" vertex="1" parent="1">
                    <mxGeometry x="40" y="190" width="280" height="40" as="geometry"/>
                </mxCell>
                <mxCell id="64" value="Replace LoginServer" style="rounded=1;whiteSpace=wrap;html=1;fillColor=#f5f5f5;strokeColor=#666666;gradientColor=#b3b3b3;" vertex="1" parent="1">
                    <mxGeometry x="80" y="280" width="240" height="40" as="geometry"/>
                </mxCell>
                <mxCell id="65" value="Replace CommunityServer" style="rounded=1;whiteSpace=wrap;html=1;fillColor=#f5f5f5;strokeColor=#666666;gradientColor=#b3b3b3;" vertex="1" parent="1">
                    <mxGeometry x="80" y="320" width="240" height="40" as="geometry"/>
                </mxCell>
                <mxCell id="66" value="Redesign RegisterProcess" style="rounded=1;whiteSpace=wrap;html=1;fillColor=#dae8fc;strokeColor=#6c8ebf;gradientColor=#7ea6e0;" vertex="1" parent="1">
                    <mxGeometry x="40" y="370" width="280" height="40" as="geometry"/>
                </mxCell>
                <mxCell id="67" value="PublisherID in RegisterProcess" style="rounded=1;whiteSpace=wrap;html=1;fillColor=#f5f5f5;strokeColor=#666666;gradientColor=#b3b3b3;" vertex="1" parent="1">
                    <mxGeometry x="80" y="410" width="240" height="40" as="geometry"/>
                </mxCell>
                <mxCell id="68" value="GDD Decay Tool" style="rounded=1;whiteSpace=wrap;html=1;fillColor=#dae8fc;strokeColor=#6c8ebf;gradientColor=#7ea6e0;" vertex="1" parent="1">
                    <mxGeometry x="40" y="560" width="280" height="40" as="geometry"/>
                </mxCell>
                <mxCell id="69" value="Separate Overview from SendCoin" style="rounded=1;whiteSpace=wrap;html=1;fillColor=#dae8fc;strokeColor=#6c8ebf;gradientColor=#7ea6e0;" vertex="1" parent="1">
                    <mxGeometry x="40" y="460" width="280" height="40" as="geometry"/>
                </mxCell>
                <mxCell id="70" value="Design&amp;amp;Layout Changes in FE" style="rounded=1;whiteSpace=wrap;html=1;fillColor=#dae8fc;strokeColor=#6c8ebf;gradientColor=#7ea6e0;" vertex="1" parent="1">
                    <mxGeometry x="40" y="510" width="280" height="40" as="geometry"/>
                </mxCell>
                <mxCell id="71" value="New Deployment" style="rounded=1;whiteSpace=wrap;html=1;fillColor=#f5f5f5;strokeColor=#666666;gradientColor=#b3b3b3;" vertex="1" parent="1">
                    <mxGeometry x="80" y="650" width="240" height="40" as="geometry"/>
                </mxCell>
                <mxCell id="72" value="Refactor, Tests &amp;amp; DevOps" style="rounded=1;whiteSpace=wrap;html=1;fillColor=#dae8fc;strokeColor=#6c8ebf;gradientColor=#7ea6e0;" vertex="1" parent="1">
                    <mxGeometry x="760" y="1090" width="480" height="40" as="geometry"/>
                </mxCell>
                <mxCell id="73" value="Release 1.6.x&amp;nbsp;" style="rounded=1;whiteSpace=wrap;html=1;fillColor=#d5e8d4;strokeColor=#82b366;gradientColor=#97d077;" vertex="1" parent="1">
                    <mxGeometry x="40" y="120" width="680" height="20" as="geometry"/>
                </mxCell>
                <mxCell id="74" value="Development&lt;br&gt;15.10.2021 - 30.12.2021" style="rounded=1;whiteSpace=wrap;html=1;fillColor=#d5e8d4;strokeColor=#82b366;gradientColor=#97d077;" vertex="1" parent="1">
                    <mxGeometry x="40" y="140" width="280" height="40" as="geometry"/>
                </mxCell>
                <mxCell id="75" value="Test&lt;br&gt;01.01.2022 - 07.01.2022" style="rounded=1;whiteSpace=wrap;html=1;fillColor=#d5e8d4;strokeColor=#82b366;gradientColor=#97d077;" vertex="1" parent="1">
                    <mxGeometry x="320" y="140" width="160" height="40" as="geometry"/>
                </mxCell>
                <mxCell id="76" value="Release&lt;br&gt;08.01.2022 - 15.01.2022" style="rounded=1;whiteSpace=wrap;html=1;fillColor=#d5e8d4;strokeColor=#82b366;gradientColor=#97d077;" vertex="1" parent="1">
                    <mxGeometry x="480" y="140" width="160" height="40" as="geometry"/>
                </mxCell>
                <mxCell id="77" value="Deadline&lt;br&gt;01.02.2022" style="rounded=1;whiteSpace=wrap;html=1;fillColor=#f8cecc;strokeColor=#b85450;gradientColor=#ea6b66;" vertex="1" parent="1">
                    <mxGeometry x="640" y="140" width="80" height="40" as="geometry"/>
                </mxCell>
                <mxCell id="78" value="assemble Gradido-Logik in AppolloServer" style="rounded=1;whiteSpace=wrap;html=1;fillColor=#dae8fc;strokeColor=#6c8ebf;gradientColor=#7ea6e0;" vertex="1" parent="1">
                    <mxGeometry x="40" y="240" width="280" height="40" as="geometry"/>
                </mxCell>
                <mxCell id="79" value="launch new Stages (Strato)" style="rounded=1;whiteSpace=wrap;html=1;fillColor=#dae8fc;strokeColor=#6c8ebf;gradientColor=#7ea6e0;" vertex="1" parent="1">
                    <mxGeometry x="40" y="610" width="280" height="40" as="geometry"/>
                </mxCell>
                <mxCell id="80" value="Release 1.7.x&amp;nbsp;" style="rounded=1;whiteSpace=wrap;html=1;fillColor=#d5e8d4;strokeColor=#82b366;gradientColor=#97d077;" vertex="1" parent="1">
                    <mxGeometry x="760" y="120" width="800" height="20" as="geometry"/>
                </mxCell>
                <mxCell id="81" value="Development&lt;br&gt;01.02.2022 - 28.02.2022" style="rounded=1;whiteSpace=wrap;html=1;fillColor=#d5e8d4;strokeColor=#82b366;gradientColor=#97d077;" vertex="1" parent="1">
                    <mxGeometry x="760" y="140" width="480" height="40" as="geometry"/>
                </mxCell>
                <mxCell id="82" value="Test&lt;br&gt;01.03.2022 - 07.03.2022" style="rounded=1;whiteSpace=wrap;html=1;fillColor=#d5e8d4;strokeColor=#82b366;gradientColor=#97d077;" vertex="1" parent="1">
                    <mxGeometry x="1240" y="140" width="160" height="40" as="geometry"/>
                </mxCell>
                <mxCell id="83" value="Release&lt;br&gt;08.03.2022 - 15.03.2022" style="rounded=1;whiteSpace=wrap;html=1;fillColor=#d5e8d4;strokeColor=#82b366;gradientColor=#97d077;" vertex="1" parent="1">
                    <mxGeometry x="1400" y="140" width="160" height="40" as="geometry"/>
                </mxCell>
                <mxCell id="84" value="Admin Interface Usertool" style="rounded=1;whiteSpace=wrap;html=1;fillColor=#dae8fc;strokeColor=#6c8ebf;gradientColor=#7ea6e0;" vertex="1" parent="1">
                    <mxGeometry x="760" y="950" width="480" height="40" as="geometry"/>
                </mxCell>
                <mxCell id="85" value="Community-Readyness 1st-Level (Basics)" style="rounded=1;whiteSpace=wrap;html=1;fillColor=#dae8fc;strokeColor=#6c8ebf;gradientColor=#7ea6e0;" vertex="1" parent="1">
                    <mxGeometry x="760" y="190" width="480" height="40" as="geometry"/>
                </mxCell>
                <mxCell id="86" value="Welcome-Community-Solution instead of Klick-Tipp Community-Ready" style="rounded=1;whiteSpace=wrap;html=1;fillColor=#f5f5f5;strokeColor=#666666;gradientColor=#b3b3b3;" vertex="1" parent="1">
                    <mxGeometry x="800" y="270" width="440" height="40" as="geometry"/>
                </mxCell>
                <mxCell id="87" value="Welcome-Community-Solution instead of&lt;br&gt;GDT Community-Ready" style="rounded=1;whiteSpace=wrap;html=1;fillColor=#f5f5f5;strokeColor=#666666;gradientColor=#b3b3b3;" vertex="1" parent="1">
                    <mxGeometry x="800" y="310" width="440" height="40" as="geometry"/>
                </mxCell>
                <mxCell id="88" value="Federation" style="rounded=1;whiteSpace=wrap;html=1;fillColor=#f5f5f5;strokeColor=#666666;gradientColor=#b3b3b3;" vertex="1" parent="1">
                    <mxGeometry x="800" y="350" width="440" height="40" as="geometry"/>
                </mxCell>
                <mxCell id="89" value="Cross Community-DataExchange" style="rounded=1;whiteSpace=wrap;html=1;fillColor=#f5f5f5;strokeColor=#666666;gradientColor=#b3b3b3;" vertex="1" parent="1">
                    <mxGeometry x="800" y="390" width="440" height="40" as="geometry"/>
                </mxCell>
                <mxCell id="90" value="Account-Statistics 1st Level (base on existing data, no additional aggregations)" style="rounded=1;whiteSpace=wrap;html=1;fillColor=#dae8fc;strokeColor=#6c8ebf;gradientColor=#7ea6e0;" vertex="1" parent="1">
                    <mxGeometry x="760" y="1040" width="480" height="40" as="geometry"/>
                </mxCell>
                <mxCell id="91" value="FE Community-Ready" style="rounded=1;whiteSpace=wrap;html=1;fillColor=#f5f5f5;strokeColor=#666666;gradientColor=#b3b3b3;" vertex="1" parent="1">
                    <mxGeometry x="800" y="430" width="440" height="40" as="geometry"/>
                </mxCell>
                <mxCell id="92" value="Cross Community-Transaction" style="rounded=1;whiteSpace=wrap;html=1;fillColor=#f5f5f5;strokeColor=#666666;gradientColor=#b3b3b3;" vertex="1" parent="1">
                    <mxGeometry x="800" y="470" width="440" height="40" as="geometry"/>
                </mxCell>
                <mxCell id="93" value="Marketing Multiplication" style="rounded=1;whiteSpace=wrap;html=1;fillColor=#dae8fc;strokeColor=#6c8ebf;gradientColor=#7ea6e0;" vertex="1" parent="1">
                    <mxGeometry x="760" y="650" width="480" height="40" as="geometry"/>
                </mxCell>
                <mxCell id="94" value="Introduction of Username #163 / #1069" style="rounded=1;whiteSpace=wrap;html=1;fillColor=#f5f5f5;strokeColor=#666666;gradientColor=#b3b3b3;" vertex="1" parent="1">
                    <mxGeometry x="800" y="690" width="440" height="40" as="geometry"/>
                </mxCell>
                <mxCell id="95" value="Release 1.8.x&amp;nbsp;" style="rounded=1;whiteSpace=wrap;html=1;fillColor=#d5e8d4;strokeColor=#82b366;gradientColor=#97d077;" vertex="1" parent="1">
                    <mxGeometry x="1600" y="120" width="720" height="20" as="geometry"/>
                </mxCell>
                <mxCell id="96" value="Development&lt;br&gt;16.03.2022 - dd.mm.2022" style="rounded=1;whiteSpace=wrap;html=1;fillColor=#d5e8d4;strokeColor=#82b366;gradientColor=#97d077;" vertex="1" parent="1">
                    <mxGeometry x="1600" y="140" width="400" height="40" as="geometry"/>
                </mxCell>
                <mxCell id="97" value="Test&lt;br&gt;dd.mm.2022 - dd.mm.2022" style="rounded=1;whiteSpace=wrap;html=1;fillColor=#d5e8d4;strokeColor=#82b366;gradientColor=#97d077;" vertex="1" parent="1">
                    <mxGeometry x="2000" y="140" width="160" height="40" as="geometry"/>
                </mxCell>
                <mxCell id="98" value="Release&lt;br&gt;dd.mm.2022 - dd.mm.2022" style="rounded=1;whiteSpace=wrap;html=1;fillColor=#d5e8d4;strokeColor=#82b366;gradientColor=#97d077;" vertex="1" parent="1">
                    <mxGeometry x="2160" y="140" width="160" height="40" as="geometry"/>
                </mxCell>
                <mxCell id="99" value="Community-Readyness 2nd-Level" style="rounded=1;whiteSpace=wrap;html=1;fillColor=#dae8fc;strokeColor=#6c8ebf;gradientColor=#7ea6e0;" vertex="1" parent="1">
                    <mxGeometry x="1600" y="190" width="400" height="40" as="geometry"/>
                </mxCell>
                <mxCell id="100" value="Account-Statistics 2nd Level (base on additional data aggregations)" style="rounded=1;whiteSpace=wrap;html=1;fillColor=#dae8fc;strokeColor=#6c8ebf;gradientColor=#7ea6e0;" vertex="1" parent="1">
                    <mxGeometry x="1600" y="360" width="400" height="40" as="geometry"/>
                </mxCell>
                <mxCell id="101" value="Cross Community-Transaction" style="rounded=1;whiteSpace=wrap;html=1;fillColor=#f5f5f5;strokeColor=#666666;gradientColor=#b3b3b3;" vertex="1" parent="1">
                    <mxGeometry x="1640" y="230" width="360" height="40" as="geometry"/>
                </mxCell>
                <mxCell id="102" value="Community AGE-Actionlist" style="rounded=1;whiteSpace=wrap;html=1;fillColor=#f5f5f5;strokeColor=#666666;gradientColor=#b3b3b3;" vertex="1" parent="1">
                    <mxGeometry x="1640" y="270" width="360" height="40" as="geometry"/>
                </mxCell>
                <mxCell id="103" value="Cross Community GDD-CreationConfirmation" style="rounded=1;whiteSpace=wrap;html=1;fillColor=#f5f5f5;strokeColor=#666666;gradientColor=#b3b3b3;" vertex="1" parent="1">
                    <mxGeometry x="1640" y="310" width="360" height="40" as="geometry"/>
                </mxCell>
                <mxCell id="104" value="Managed Kubernetes" style="rounded=1;whiteSpace=wrap;html=1;fillColor=#dae8fc;strokeColor=#6c8ebf;gradientColor=#7ea6e0;" vertex="1" parent="1">
                    <mxGeometry x="1600" y="410" width="400" height="40" as="geometry"/>
                </mxCell>
                <mxCell id="105" value="assemble Test-Stage" style="rounded=1;whiteSpace=wrap;html=1;fillColor=#f5f5f5;strokeColor=#666666;gradientColor=#b3b3b3;" vertex="1" parent="1">
                    <mxGeometry x="1640" y="450" width="360" height="40" as="geometry"/>
                </mxCell>
                <mxCell id="106" value="Monitoring Infrastructur (out of the box from provider)" style="rounded=1;whiteSpace=wrap;html=1;fillColor=#f5f5f5;strokeColor=#666666;gradientColor=#b3b3b3;" vertex="1" parent="1">
                    <mxGeometry x="800" y="1130" width="440" height="40" as="geometry"/>
                </mxCell>
                <mxCell id="107" value="One-Database 1st-Level" style="rounded=1;whiteSpace=wrap;html=1;fillColor=#dae8fc;strokeColor=#6c8ebf;gradientColor=#7ea6e0;" vertex="1" parent="1">
                    <mxGeometry x="760" y="520" width="480" height="40" as="geometry"/>
                </mxCell>
                <mxCell id="108" value="refactor existing DB-Model (delete unused tables, etc.)" style="rounded=1;whiteSpace=wrap;html=1;fillColor=#f5f5f5;strokeColor=#666666;gradientColor=#b3b3b3;" vertex="1" parent="1">
                    <mxGeometry x="800" y="560" width="440" height="40" as="geometry"/>
                </mxCell>
                <mxCell id="109" value="One-Database 2nd Level" style="rounded=1;whiteSpace=wrap;html=1;fillColor=#dae8fc;strokeColor=#6c8ebf;gradientColor=#7ea6e0;" vertex="1" parent="1">
                    <mxGeometry x="1600" y="500" width="400" height="40" as="geometry"/>
                </mxCell>
                <mxCell id="110" value="new Database Model" style="rounded=1;whiteSpace=wrap;html=1;fillColor=#f5f5f5;strokeColor=#666666;gradientColor=#b3b3b3;" vertex="1" parent="1">
                    <mxGeometry x="1640" y="540" width="360" height="40" as="geometry"/>
                </mxCell>
                <mxCell id="111" value="DB-Migration from Old to New" style="rounded=1;whiteSpace=wrap;html=1;fillColor=#f5f5f5;strokeColor=#666666;gradientColor=#b3b3b3;" vertex="1" parent="1">
                    <mxGeometry x="1640" y="580" width="360" height="40" as="geometry"/>
                </mxCell>
                <mxCell id="112" value="multi Language Support" style="rounded=1;whiteSpace=wrap;html=1;fillColor=#dae8fc;strokeColor=#6c8ebf;gradientColor=#7ea6e0;" vertex="1" parent="1">
                    <mxGeometry x="760" y="860" width="480" height="40" as="geometry"/>
                </mxCell>
                <mxCell id="113" value="Email-Templates" style="rounded=1;whiteSpace=wrap;html=1;fillColor=#f5f5f5;strokeColor=#666666;gradientColor=#b3b3b3;" vertex="1" parent="1">
                    <mxGeometry x="800" y="900" width="440" height="40" as="geometry"/>
                </mxCell>
                <mxCell id="114" value="support several Email addresses per User" style="rounded=1;whiteSpace=wrap;html=1;fillColor=#f5f5f5;strokeColor=#666666;gradientColor=#b3b3b3;" vertex="1" parent="1">
                    <mxGeometry x="800" y="730" width="440" height="40" as="geometry"/>
                </mxCell>
                <mxCell id="115" value="support Invation-Email to prospective users&amp;nbsp;" style="rounded=1;whiteSpace=wrap;html=1;fillColor=#f5f5f5;strokeColor=#666666;gradientColor=#b3b3b3;" vertex="1" parent="1">
                    <mxGeometry x="800" y="770" width="440" height="40" as="geometry"/>
                </mxCell>
                <mxCell id="116" value="support Spend-Coin-Email to prospective and existing users" style="rounded=1;whiteSpace=wrap;html=1;fillColor=#f5f5f5;strokeColor=#666666;gradientColor=#b3b3b3;" vertex="1" parent="1">
                    <mxGeometry x="800" y="810" width="440" height="40" as="geometry"/>
                </mxCell>
                <mxCell id="117" value="different Search Features (from old Support-Pages)" style="rounded=1;whiteSpace=wrap;html=1;fillColor=#f5f5f5;strokeColor=#666666;gradientColor=#b3b3b3;" vertex="1" parent="1">
                    <mxGeometry x="800" y="990" width="440" height="40" as="geometry"/>
                </mxCell>
                <mxCell id="118" value="Refactor, Tests &amp;amp; DevOps" style="rounded=1;whiteSpace=wrap;html=1;fillColor=#dae8fc;strokeColor=#6c8ebf;gradientColor=#7ea6e0;" vertex="1" parent="1">
                    <mxGeometry x="1600" y="630" width="400" height="40" as="geometry"/>
                </mxCell>
                <mxCell id="119" value="Monitoring Application" style="rounded=1;whiteSpace=wrap;html=1;fillColor=#f5f5f5;strokeColor=#666666;gradientColor=#b3b3b3;" vertex="1" parent="1">
                    <mxGeometry x="1640" y="670" width="360" height="40" as="geometry"/>
                </mxCell>
                <mxCell id="120" value="Logging + Analytics" style="rounded=1;whiteSpace=wrap;html=1;fillColor=#f5f5f5;strokeColor=#666666;gradientColor=#b3b3b3;" vertex="1" parent="1">
                    <mxGeometry x="1640" y="710" width="360" height="40" as="geometry"/>
                </mxCell>
                <mxCell id="121" value="extend Database with new tables / attributes in prevision of new DB-Model&amp;nbsp;" style="rounded=1;whiteSpace=wrap;html=1;fillColor=#f5f5f5;strokeColor=#666666;gradientColor=#b3b3b3;" vertex="1" parent="1">
                    <mxGeometry x="800" y="600" width="440" height="40" as="geometry"/>
                </mxCell>
                <mxCell id="122" value="Community-Changover Process for Welcome-Community-Solution" style="rounded=1;whiteSpace=wrap;html=1;fillColor=#f5f5f5;strokeColor=#666666;gradientColor=#b3b3b3;" vertex="1" parent="1">
                    <mxGeometry x="800" y="230" width="440" height="40" as="geometry"/>
                </mxCell>
                <mxCell id="123" value="&lt;font style=&quot;font-size: 24px&quot;&gt;&lt;b&gt;Gradido-Roadmap - 28.12.2021&lt;/b&gt;&lt;/font&gt;" style="text;html=1;strokeColor=#82b366;fillColor=#d5e8d4;align=center;verticalAlign=middle;whiteSpace=wrap;rounded=0;fontSize=20;gradientColor=#97d077;" vertex="1" parent="1">
                    <mxGeometry x="40" y="40" width="2280" height="40" as="geometry"/>
                </mxCell>
            </root>
        </mxGraphModel>
    </diagram>
</mxfile>